<?xml version="1.0" encoding="UTF-8"?>
<svg width="60" height="84" viewBox="0 0 60 84" version="1.1" xmlns="http://www.w3.org/2000/svg" xmlns:xlink="http://www.w3.org/1999/xlink" fill="#000">
	<path d="M18.148812,0.331188 C41.1238576,0.331188 59.748812,18.9561424 59.748812,41.931188 C59.748812,64.6764835 41.4944942,83.1582539 18.8367441,83.5256148 L18.148812,83.531188 L18.146812,59.531188 L17.82187,59.5282122 C8.3612639,59.3558628 0.7241372,51.7187361 0.5517878,42.25813 L0.548812,41.931188 C0.548812,32.4306635 8.07644233,24.6883112 17.4926408,24.3431934 L17.82187,24.3341638 L18.148812,24.331188 L18.148812,0.331188 Z M18.148812,24.331188 L18.148812,59.531188 L18.475754,59.5282122 C28.0451027,59.3538818 35.748812,51.5421837 35.748812,41.931188 C35.748812,32.2109764 27.8690236,24.331188 18.148812,24.331188 L18.148812,24.331188 Z" transform="translate(30.148812, 41.931188) rotate(-180.000000) translate(-30.148812, -41.931188) "></path>
</svg>