<?xml version="1.0" encoding="UTF-8"?>
<svg width="96" height="96" viewBox="0 0 96 96" version="1.1" xmlns="http://www.w3.org/2000/svg" xmlns:xlink="http://www.w3.org/1999/xlink">
	<g transform="translate(0.000000, -34.000000)" fill="#000">
		<path d="M48,34 C74.509668,34 96,55.490332 96,82 C96,108.509668 74.509668,130 48,130 L48,123.6 C70.9750456,123.6 89.6,104.975046 89.6,82 C89.6,59.0249544 70.9750456,40.4 48,40.4 L48,64.4 L47.673058,64.4029758 C38.1037093,64.5773062 30.4,72.3890043 30.4,82 C30.4,91.7202116 38.2797884,99.6 48,99.6 L47.999,99.599 L48,130 C21.490332,130 -7.10542736e-15,108.509668 0,82 C0,55.7554287 21.0626744,34.4303086 47.2062322,34.0064306 L48,34 Z M48,64.4 C57.7202116,64.4 65.6,72.2797884 65.6,82 C65.6,91.6109957 57.8962907,99.4226938 48.326942,99.5970242 L48,99.6 L48,64.4 Z"></path>
	</g>
</svg>